<svg width="296" height="257" viewBox="0 0 296 257" fill="none" xmlns="http://www.w3.org/2000/svg">
<path d="M253.056 20.544C278.784 34.368 300.096 55.68 313.92 81.408C327.936 106.944 334.464 137.088 334.464 167.232C334.464 197.376 327.936 227.52 313.92 253.056C300.096 278.784 278.784 300.096 253.056 313.92C227.52 327.936 197.376 334.464 167.232 334.464C137.088 334.464 106.944 327.936 81.408 313.92C55.68 300.096 34.368 278.784 20.544 253.056C6.528 227.52 0 197.376 0 167.232C0 137.088 6.528 106.944 20.544 81.408C34.368 55.68 55.68 34.368 81.408 20.544C106.944 6.528 137.088 0 167.232 0C197.376 0 227.52 6.528 253.056 20.544Z" fill="#00D1FF"/>
</svg>
